<svg width="20" height="20" viewBox="0 0 20 20" fill="none" xmlns="http://www.w3.org/2000/svg">
<path d="M16.6667 3.33333H3.33332C2.41285 3.33333 1.66666 4.07952 1.66666 4.99999V5.83333C1.66666 6.7538 2.41285 7.49999 3.33332 7.49999H16.6667C17.5871 7.49999 18.3333 6.7538 18.3333 5.83333V4.99999C18.3333 4.07952 17.5871 3.33333 16.6667 3.33333Z" stroke="white" stroke-width="2" stroke-linecap="round" stroke-linejoin="round"/>
<path d="M3.33334 7.5V15C3.33334 15.442 3.50894 15.866 3.8215 16.1785C4.13406 16.4911 4.55798 16.6667 5.00001 16.6667H15C15.442 16.6667 15.866 16.4911 16.1785 16.1785C16.4911 15.866 16.6667 15.442 16.6667 15V7.5" stroke="white" stroke-width="2" stroke-linecap="round" stroke-linejoin="round"/>
<path d="M8.33334 10.8333H11.6667" stroke="white" stroke-width="2" stroke-linecap="round" stroke-linejoin="round"/>
</svg>
